<svg xmlns="http://www.w3.org/2000/svg" height="24" width="24"><path d="M13.45 10.55ZM10.6 13.4ZM12 20q1.275 0 2.45-.387 1.175-.388 2.2-1.113-1.025-.725-2.2-1.113Q13.275 17 12 17q-1.275 0-2.45.387-1.175.388-2.2 1.113 1.025.725 2.2 1.113Q10.725 20 12 20Zm2.65-8.2-1.425-1.425q.125-.2.2-.425.075-.225.075-.45 0-.625-.438-1.062Q12.625 8 12 8q-.225 0-.45.075t-.425.2L9.7 6.85q.475-.425 1.063-.637Q11.35 6 12 6q1.45 0 2.475 1.025Q15.5 8.05 15.5 9.5q0 .65-.212 1.237-.213.588-.638 1.063Zm5.7 5.7-1.45-1.45q.55-.925.825-1.95Q20 13.075 20 12q0-3.35-2.325-5.675Q15.35 4 12 4q-1.075 0-2.1.275-1.025.275-1.95.825L6.5 3.65q1.225-.8 2.625-1.225Q10.525 2 12 2q2.075 0 3.9.787 1.825.788 3.175 2.138 1.35 1.35 2.137 3.175Q22 9.925 22 12q0 1.475-.425 2.875T20.35 17.5ZM12 22q-2.075 0-3.9-.788-1.825-.787-3.175-2.137-1.35-1.35-2.137-3.175Q2 14.075 2 12q0-1.475.413-2.875.412-1.4 1.212-2.65L.675 3.5 2.1 2.075l19.8 19.8-1.425 1.425L5.1 7.95q-.55.925-.825 1.95Q4 10.925 4 12q0 1.425.475 2.725T5.85 17.1q1.35-1.025 2.913-1.563Q10.325 15 12 15q.95 0 1.9.2t1.85.55l3.325 3.325q-1.425 1.425-3.25 2.175Q14 22 12 22Z"/></svg>