<svg xmlns="http://www.w3.org/2000/svg" xmlns:xlink="http://www.w3.org/1999/xlink" width="27.562" height="31.868" viewBox="0 0 27.562 31.868">
  <defs>
    <clipPath id="clip-path">
      <path id="path2121" d="M0-682.665H27.562V-650.8H0Z" transform="translate(0 682.665)" fill="#1a71b7"/>
    </clipPath>
  </defs>
  <g id="account" transform="translate(0 -0.002)">
    <g id="g2115" transform="translate(0 0.002)">
      <g id="g2117">
        <g id="g2119" clip-path="url(#clip-path)">
          <g id="g2125" transform="translate(0.404 1.986)">
            <path id="path2127" d="M-552.985-269.589V-281.3a1.4,1.4,0,0,0-1.292-1.495h-20.68a1.4,1.4,0,0,0-1.293,1.495v19.926a1.4,1.4,0,0,0,1.293,1.494h13.544" transform="translate(576.251 282.79)" fill="none"  stroke-linecap="round" stroke-linejoin="round" stroke-miterlimit="10" stroke-width="1"/>
          </g>
          <g id="g2129" transform="translate(2.127 4.476)">
            <path id="path2131" d="M0,0H0" transform="translate(0 0)" fill="none"  stroke-linecap="round" stroke-linejoin="round" stroke-miterlimit="10" stroke-width="1"/>
          </g>
          <g id="g2133" transform="translate(4.708 4.476)">
            <path id="path2135" d="M0,0H0" transform="translate(0 0)" fill="none"  stroke-linecap="round" stroke-linejoin="round" stroke-miterlimit="10" stroke-width="1"/>
          </g>
          <g id="g2137" transform="translate(3.415 4.476)">
            <path id="path2139" d="M0,0H0" transform="translate(0 0)" fill="none"  stroke-linecap="round" stroke-linejoin="round" stroke-miterlimit="10" stroke-width="1"/>
          </g>
          <g id="g2141" transform="translate(6.435 4.476)">
            <path id="path2143" d="M0,0H15.51" transform="translate(0 0)" fill="none"  stroke-linecap="round" stroke-linejoin="round" stroke-miterlimit="10" stroke-width="1"/>
          </g>
          <g id="g2145" transform="translate(0.404 6.967)">
            <path id="path2147" d="M0,0H23.265" transform="translate(0 0)" fill="none"  stroke-linecap="round" stroke-linejoin="round" stroke-miterlimit="10" stroke-width="1"/>
          </g>
          <g id="g2149" transform="translate(9.882 17.161)">
            <path id="path2151" d="M-81.924-158.058v-3.487a1.514,1.514,0,0,0-.8-1.38l-2.121-1.022a1.009,1.009,0,0,1-.53-.92v-.932" transform="translate(85.37 165.798)" fill="none"  stroke-linecap="round" stroke-linejoin="round" stroke-miterlimit="10" stroke-width="1"/>
          </g>
          <g id="g2153" transform="translate(2.989 17.161)">
            <path id="path2155" d="M-81.924,0V.932a1.009,1.009,0,0,1-.53.92l-2.121,1.022a1.514,1.514,0,0,0-.8,1.38V7.74" transform="translate(85.37)" fill="none"  stroke-linecap="round" stroke-linejoin="round" stroke-miterlimit="10" stroke-width="1"/>
          </g>
          <g id="g2157" transform="translate(5.574 10.454)">
            <path id="path2159" d="M-30.7-144.418a3.1,3.1,0,0,1-1.292-2.588V-149a2.539,2.539,0,0,1,2.585-2.491A2.539,2.539,0,0,1-26.821-149v1.993a3.1,3.1,0,0,1-1.292,2.589" transform="translate(31.991 151.49)" fill="none"  stroke-linecap="round" stroke-linejoin="round" stroke-miterlimit="10" stroke-width="1"/>
          </g>
          <g id="g2161" transform="translate(15.525 16.432)">
            <path id="path2163" d="M0-47.77s.128,7.018,5.816,11.111C11.5-40.752,11.633-47.77,11.633-47.77L5.816-50.109,1.634-48.427" transform="translate(0 50.109)" fill="none"  stroke-linecap="round" stroke-linejoin="round" stroke-miterlimit="10" stroke-width="1"/>
          </g>
          <g id="g2165" transform="translate(19.129 21.293)">
            <path id="path2167" d="M0-23.885l1.77,2.047,2.782-3.216" transform="translate(0 25.055)" fill="none"  stroke-linecap="round" stroke-linejoin="round" stroke-miterlimit="10" stroke-width="1"/>
          </g>
          <g id="g2169" transform="translate(13.329 9.956)">
            <path id="path2171" d="M-174.089-50.866h-6.893a.468.468,0,0,1-.431-.5v-1.495a.468.468,0,0,1,.431-.5h6.893a.468.468,0,0,1,.431.5v1.495A.468.468,0,0,1-174.089-50.866Z" transform="translate(181.413 53.357)" fill="none"  stroke-linecap="round" stroke-linejoin="round" stroke-miterlimit="10" stroke-width="1"/>
          </g>
          <g id="g2173" transform="translate(13.76 14.44)">
            <path id="path2175" d="M0,0H5.17" transform="translate(0 0)" fill="none"  stroke-linecap="round" stroke-linejoin="round" stroke-miterlimit="10" stroke-width="1"/>
          </g>
          <g id="g2177" transform="translate(13.76 16.432)">
            <path id="path2179" d="M0,0H3.016" transform="translate(0 0)" fill="none"  stroke-linecap="round" stroke-linejoin="round" stroke-miterlimit="10" stroke-width="1"/>
          </g>
        </g>
      </g>
    </g>
  </g>
</svg>
